<svg width="42" height="42" viewBox="0 0 42 42" fill="none" xmlns="http://www.w3.org/2000/svg">
<circle cx="21" cy="21" r="21" fill="#F2F2F2"/>
<circle cx="21" cy="21" r="20.5" stroke="#D3D3D3" stroke-opacity="0.75"/>
<path d="M12 20L30 15V27L12 23V20Z" stroke="black" stroke-opacity="0.87" stroke-width="1.5" stroke-linecap="round" stroke-linejoin="round"/>
<path d="M20.6 25.8C20.4949 26.1808 20.3159 26.5372 20.0731 26.8488C19.8303 27.1605 19.5285 27.4212 19.1849 27.6162C18.8413 27.8112 18.4627 27.9367 18.0707 27.9853C17.6786 28.034 17.2808 28.005 16.9 27.9C16.5191 27.7949 16.1627 27.6159 15.8511 27.3731C15.5394 27.1303 15.2787 26.8285 15.0837 26.4849C14.8887 26.1413 14.7633 25.7627 14.7146 25.3706C14.6659 24.9786 14.6949 24.5808 14.8 24.2" stroke="black" stroke-opacity="0.87" stroke-width="1.5" stroke-linecap="round" stroke-linejoin="round"/>
</svg>
