<svg width="32" height="31" viewBox="0 0 32 31" fill="none" xmlns="http://www.w3.org/2000/svg">
<path opacity="0.85" d="M12 6.975V11.625H7.2V6.975H12ZM14.4 4.65H4.8V13.95H14.4V4.65ZM12 19.375V24.025H7.2V19.375H12ZM14.4 17.05H4.8V26.35H14.4V17.05ZM24.8 6.975V11.625H20V6.975H24.8ZM27.2 4.65H17.6V13.95H27.2V4.65ZM17.6 17.05H20V19.375H17.6V17.05ZM20 19.375H22.4V21.7H20V19.375ZM22.4 17.05H24.8V19.375H22.4V17.05ZM17.6 21.7H20V24.025H17.6V21.7ZM20 24.025H22.4V26.35H20V24.025ZM22.4 21.7H24.8V24.025H22.4V21.7ZM24.8 19.375H27.2V21.7H24.8V19.375ZM24.8 24.025H27.2V26.35H24.8V24.025ZM32 7.75H28.8V3.1H24V0H32V7.75ZM32 31V23.25H28.8V27.9H24V31H32ZM0 31H8V27.9H3.2V23.25H0V31ZM0 0V7.75H3.2V3.1H8V0H0Z" fill="#0081F7"/>
</svg>
