<svg width="180" height="180" viewBox="0 0 180 180" fill="none" xmlns="http://www.w3.org/2000/svg">
<path d="M0 5.625C0 4.13316 0.592632 2.70242 1.64752 1.64752C2.70242 0.592632 4.13316 0 5.625 0L39.375 0C40.8668 0 42.2976 0.592632 43.3525 1.64752C44.4074 2.70242 45 4.13316 45 5.625C45 7.11684 44.4074 8.54758 43.3525 9.60248C42.2976 10.6574 40.8668 11.25 39.375 11.25H32.25C20.652 11.25 11.25 20.652 11.25 32.25V39.375C11.25 40.8668 10.6574 42.2976 9.60248 43.3525C8.54758 44.4074 7.11684 45 5.625 45C4.13316 45 2.70242 44.4074 1.64752 43.3525C0.592632 42.2976 0 40.8668 0 39.375V5.625ZM135 5.625C135 4.13316 135.593 2.70242 136.648 1.64752C137.702 0.592632 139.133 0 140.625 0L174.375 0C175.867 0 177.298 0.592632 178.352 1.64752C179.407 2.70242 180 4.13316 180 5.625V39.375C180 40.8668 179.407 42.2976 178.352 43.3525C177.298 44.4074 175.867 45 174.375 45C172.883 45 171.452 44.4074 170.398 43.3525C169.343 42.2976 168.75 40.8668 168.75 39.375V32.25C168.75 20.652 159.348 11.25 147.75 11.25H140.625C139.133 11.25 137.702 10.6574 136.648 9.60248C135.593 8.54758 135 7.11684 135 5.625ZM5.625 135C7.11684 135 8.54758 135.593 9.60248 136.648C10.6574 137.702 11.25 139.133 11.25 140.625V147.75C11.25 159.348 20.652 168.75 32.25 168.75H39.375C40.8668 168.75 42.2976 169.343 43.3525 170.398C44.4074 171.452 45 172.883 45 174.375C45 175.867 44.4074 177.298 43.3525 178.352C42.2976 179.407 40.8668 180 39.375 180H5.625C4.13316 180 2.70242 179.407 1.64752 178.352C0.592632 177.298 0 175.867 0 174.375V140.625C0 139.133 0.592632 137.702 1.64752 136.648C2.70242 135.593 4.13316 135 5.625 135ZM174.375 135C175.867 135 177.298 135.593 178.352 136.648C179.407 137.702 180 139.133 180 140.625V174.375C180 175.867 179.407 177.298 178.352 178.352C177.298 179.407 175.867 180 174.375 180H140.625C139.133 180 137.702 179.407 136.648 178.352C135.593 177.298 135 175.867 135 174.375C135 172.883 135.593 171.452 136.648 170.398C137.702 169.343 139.133 168.75 140.625 168.75H147.75C159.348 168.75 168.75 159.348 168.75 147.75V140.625C168.75 139.133 169.343 137.702 170.398 136.648C171.452 135.593 172.883 135 174.375 135ZM45 50.625C45 47.5184 47.5184 45 50.625 45C53.7316 45 56.25 47.5184 56.25 50.625C56.25 53.7316 53.7316 56.25 50.625 56.25C47.5184 56.25 45 53.7316 45 50.625Z" fill="#0081F7"/>
</svg>
